<svg xmlns="http://www.w3.org/2000/svg" width="15.533" height="17.325" viewBox="0 0 15.533 17.325">
  <g id="Group_22466" data-name="Group 22466" transform="translate(-761.067 -30.4)">
    <line id="Line_422" data-name="Line 422" x2="14.157" transform="translate(761.76 36.969)" fill="none" stroke="#181515" stroke-linecap="round" stroke-linejoin="round" stroke-width="1.2"/>
    <line id="Line_423" data-name="Line 423" x2="0.009" transform="translate(772.369 40.119)" fill="none" stroke="#181515" stroke-linecap="round" stroke-linejoin="round" stroke-width="1.2"/>
    <line id="Line_424" data-name="Line 424" x2="0.009" transform="translate(768.836 40.119)" fill="none" stroke="#181515" stroke-linecap="round" stroke-linejoin="round" stroke-width="1.2"/>
    <line id="Line_425" data-name="Line 425" x2="0.009" transform="translate(765.296 40.119)" fill="none" stroke="#181515" stroke-linecap="round" stroke-linejoin="round" stroke-width="1.2"/>
    <line id="Line_426" data-name="Line 426" x2="0.009" transform="translate(772.369 43.252)" fill="none" stroke="#181515" stroke-linecap="round" stroke-linejoin="round" stroke-width="1.2"/>
    <line id="Line_427" data-name="Line 427" x2="0.009" transform="translate(768.836 43.252)" fill="none" stroke="#181515" stroke-linecap="round" stroke-linejoin="round" stroke-width="1.2"/>
    <line id="Line_428" data-name="Line 428" x2="0.009" transform="translate(765.296 43.252)" fill="none" stroke="#181515" stroke-linecap="round" stroke-linejoin="round" stroke-width="1.2"/>
    <line id="Line_429" data-name="Line 429" y2="3.291" transform="translate(772.053 31)" fill="none" stroke="#181515" stroke-linecap="round" stroke-linejoin="round" stroke-width="1.2"/>
    <line id="Line_430" data-name="Line 430" y2="3.291" transform="translate(765.621 31)" fill="none" stroke="#181515" stroke-linecap="round" stroke-linejoin="round" stroke-width="1.2"/>
    <path id="Path_10561" data-name="Path 10561" d="M10.542,1.579H3.8C1.461,1.579,0,2.871,0,5.246v7.146a3.445,3.445,0,0,0,3.8,3.734h6.735c2.346,0,3.8-1.3,3.8-3.674V5.246C14.341,2.871,12.887,1.579,10.542,1.579Z" transform="translate(761.667 31)" fill="none" stroke="#181515" stroke-linecap="round" stroke-linejoin="round" stroke-width="1.2" fill-rule="evenodd"/>
  </g>
</svg>
