<svg xmlns="http://www.w3.org/2000/svg" width="30" height="30" viewBox="0 0 30 30">
  <g id="Group_22265" data-name="Group 22265" transform="translate(-5511 237)">
    <rect id="Rectangle_14529" data-name="Rectangle 14529" width="30" height="30" transform="translate(5511 -237)" fill="none"/>
    <path id="medical-equipment" d="M19,8a2.993,2.993,0,0,0-1,5.816V15.5a4.5,4.5,0,0,1-9,0V14.48l3.124-2.5A4.976,4.976,0,0,0,14,8.078V3a1,1,0,0,0-1-1H11a1,1,0,0,0,0,2h1V8.078a2.986,2.986,0,0,1-1.125,2.342L8,12.72l-2.874-2.3A2.985,2.985,0,0,1,4,8.078V4H5A1,1,0,0,0,5,2H3A1,1,0,0,0,2,3V8.078a4.975,4.975,0,0,0,1.876,3.9L7,14.48V15.5a6.5,6.5,0,0,0,13,0V13.816A2.993,2.993,0,0,0,19,8Zm0,4a1,1,0,1,1,1-1A1,1,0,0,1,19,12Z" transform="translate(5514 -234)" fill="#333" stroke="#f5f7f8" stroke-width="0.5"/>
  </g>
</svg>
