<svg xmlns="http://www.w3.org/2000/svg" width="25" height="25" viewBox="0 0 25 25">
  <g id="Group_22261" data-name="Group 22261" transform="translate(-5187.999 237)">
    <rect id="Rectangle_14526" data-name="Rectangle 14526" width="25" height="25" transform="translate(5187.999 -237)" fill="none"/>
    <rect id="Rectangle_8292" data-name="Rectangle 8292" width="25" height="25" transform="translate(5187.999 -237)" fill="none"/>
    <g id="call" transform="translate(5192.167 -232.833)">
      <path id="Path_10558" data-name="Path 10558" d="M16.178,10.632a.785.785,0,0,0-.542-.36l-4.959-.8a.78.78,0,0,0-.645.188,4.061,4.061,0,0,0-.938,1.208A7.315,7.315,0,0,1,6.382,8.16,4.065,4.065,0,0,0,7.59,7.222a.786.786,0,0,0,.187-.645l-.8-4.96a.786.786,0,0,0-.36-.543A3.494,3.494,0,0,0,5.492.618,3.646,3.646,0,0,0,4.55.5,4.055,4.055,0,0,0,.5,4.55a12.217,12.217,0,0,0,12.2,12.2,4.055,4.055,0,0,0,4.05-4.05,3.5,3.5,0,0,0-.109-.9,3.565,3.565,0,0,0-.467-1.174ZM12.7,15.181A10.643,10.643,0,0,1,2.073,4.55,2.48,2.48,0,0,1,4.55,2.073a2.2,2.2,0,0,1,.578.076,2.129,2.129,0,0,1,.363.109l.669,4.17a2.38,2.38,0,0,1-1.041.526A.786.786,0,0,0,4.565,8.03a8.852,8.852,0,0,0,4.66,4.66.786.786,0,0,0,1.076-.555,2.385,2.385,0,0,1,.525-1.041l4.17.669a2.511,2.511,0,0,1,.121.407,2.076,2.076,0,0,1,.065.534A2.48,2.48,0,0,1,12.7,15.182Z" transform="translate(-0.5 -0.5)" fill="#333" stroke="#f5f7f8" stroke-width="0.5"/>
      <path id="Path_10559" data-name="Path 10559" d="M16.5,7.079a.786.786,0,1,0-.007,1.573,2.478,2.478,0,0,1,2.474,2.473.786.786,0,0,0,.786.783h0a.786.786,0,0,0,.783-.79A4.05,4.05,0,0,0,16.5,7.079Z" transform="translate(-7.735 -3.629)" fill="#333" stroke="#f5f7f8" stroke-width="0.5"/>
      <path id="Path_10560" data-name="Path 10560" d="M22.365,9.48a.786.786,0,0,0,.786-.786A6.011,6.011,0,0,0,17.138,2.68a.786.786,0,1,0,0,1.573,4.438,4.438,0,0,1,4.439,4.441.786.786,0,0,0,.786.786Z" transform="translate(-8.04 -1.537)" fill="#333" stroke="#f5f7f8" stroke-width="0.5"/>
    </g>
  </g>
</svg>
